# AST/ASF file generated using VICON BodyLanguage
# -----------------------------------------------
:version 1.10
:name VICON
:units
  mass 1.0
  length 0.45
  angle deg
:documentation
   .ast/.asf automatically generated from VICON data using
   VICON BodyBuilder and BodyLanguage model FoxedUp or BRILLIANT.MOD
:root
   order TX TY TZ RX RY RZ
   axis XYZ
   position 0 0 0  
   orientation 0 0 0 
:bonedata
  begin
     id 1 
     name lhipjoint
     direction 0.716248 -0.617586 0.324924 
     length 2.63557 
     axis 0 0 0  XYZ
  end
  begin
     id 2 
     name lfemur
     direction 0.34202 -0.939693 0  
     length 7.01235  
     axis 0 0 20  XYZ
    dof rx ry rz
    limits (-160.0 20.0)
           (-70.0 70.0)
           (-60.0 70.0)
  end
  begin
     id 3 
     name ltibia
     direction 0.34202 -0.939693 0   
     length 8.14348   
     axis 0 0 20   XYZ
    dof rx
    limits (-10.0 170.0)
  end
  begin
     id 4 
     name lfoot
     direction 0.0982064 -0.26982 0.95789   
     length 1.99077   
     axis -90 7.62852e-016 20   XYZ
    dof rx rz
    limits (-45.0 90.0)
           (-70.0 20.0)
  end
  begin
     id 5 
     name ltoes
     direction 1.53511e-011 -4.21891e-011 1   
     length 0.99735   
     axis -90 7.62852e-016 20   XYZ
    dof rx
    limits (-90.0 20.0)
  end
  begin
     id 6 
     name rhipjoint
     direction -0.687828 -0.642391 0.337975   
     length 2.5338  
     axis 0 0 0  XYZ 
  end
  begin
     id 7 
     name rfemur
     direction -0.34202 -0.939693 0   
     length 6.90199   
     axis 0 0 -20   XYZ
    dof rx ry rz
    limits (-160.0 20.0)
           (-70.0 70.0)
           (-70.0 60.0)
  end
  begin
     id 8 
     name rtibia
     direction -0.34202 -0.939693 0   
     length 8.07725   
     axis 0 0 -20   XYZ
    dof rx
    limits (-10.0 170.0)
 end
 begin
     id 9 
     name rfoot
     direction -0.0912384 -0.250675 0.963762   
     length 2.11621  
     axis -90 -7.62852e-016 -20   XYZ
    dof rx rz
    limits (-45.0 90.0)
           (-20.0 70.0)
  end
  begin
     id 10 
     name rtoes
     direction -1.5359e-011 -4.21894e-011 1   
     length 1.06031   
     axis -90 -7.62852e-016 -20   XYZ
    dof rx
    limits (-90.0 20.0)
  end
  begin
     id 11 
     name lowerback
     direction -0.0403572 0.987953 -0.149396   
     length 2.05637   
     axis 0 0 0   XYZ
    dof rx ry rz
    limits (-20.0 45.0)
           (-30.0 30.0)
           (-30.0 30.0)
  end
  begin
     id 12 
     name upperback
     direction -0.00512151 0.997598 0.0690792   
     length 2.01086   
     axis 0 0 0   XYZ
    dof rx ry rz
    limits (-20.0 45.0)
           (-30.0 30.0)
           (-30.0 30.0)
  end
  begin
     id 13 
     name thorax
     direction 0.0136133 0.989392 0.14463   
     length 2.09035   
     axis 0 0 0   XYZ
    dof rx ry rz
    limits (-20.0 45.0)
           (-30.0 30.0)
           (-30.0 30.0)
  end
  begin
     id 14 
     name lowerneck
     direction 0.0250714 0.992811 0.11704   
     length 1.70806   
     axis 0 0 0   XYZ
    dof rx ry rz
    limits (-20.0 45.0)
           (-30.0 30.0)
           (-30.0 30.0)
  end
  begin
     id 15 
     name upperneck
     direction -0.0519205 0.998394 -0.0226787   
     length 1.6689   
     axis 0 0 0   XYZ
    dof rx ry rz
    limits (-20.0 45.0)
           (-30.0 30.0)
           (-30.0 30.0)
  end
  begin
     id 16
     name head
     direction -0.0201693 0.999547 -0.0223192  
     length 1.83412  
     axis 0 0 0   XYZ
    dof rx ry rz
    limits (-20.0 45.0)
           (-30.0 30.0)
           (-30.0 30.0)
  end
  begin
     id 17 
     name lclavicle
     direction 0.89585 0.444077 -0.0157448  
     length 3.39587  
     axis 0 0 0   XYZ
    dof ry rz
    limits (-20.0 10.0)
           (0.0 20.0)
  end
  begin
     id 18 
     name lhumerus
     direction 1 -4.48956e-011 1.99132e-028   
     length 5.79199   
     axis 180 -30 -90   XYZ
    dof rx ry rz
    limits (-60.0 90.0)
           (-90.0 90.0)
           (-90.0 90.0)
  end
  begin
     id 19
     name lradius
     direction 1 -4.48974e-011 8.72912e-028   
     length 3.49908   
     axis 180 -30 -90   XYZ
    dof rx
    limits (-10.0 170.0)
  end
  begin
     id 20
     name lwrist
     direction 1 -4.48994e-011 4.76442e-027   
     length 1.74954   
     axis -3.27502e-015 90 90   XYZ
    dof ry
    limits (-180.0 0.0)
 end
  begin
     id 21 
     name lhand
     direction 1 -4.48945e-011 9.531e-027   
     length 0.593861   
     axis -6.08098e-015 90 90   XYZ
    dof rx rz
    limits (-90.0 90.0)
           (-45.0 45.0)
  end
  begin
     id 22 
     name lfingers
     direction 1 -4.48945e-011 1.9062e-026   
     length 0.478786   
     axis -1.21619e-014 90 90   XYZ
    dof rx
    limits (0.0 90.0)
  end
  begin
     id 23
     name lthumb
     direction 0.707107 -6.34904e-011 0.707107   
     length 0.687444   
     axis -90 45 -9.86923e-015   XYZ
    dof rx rz
    limits (-45.0 45.0)
           (-45.0 45.0)
  end
  begin
     id 24 
     name rclavicle
     direction -0.940466 0.338394 0.0318182   
     length 3.51226  
     axis 0 0 0   XYZ 
    dof ry rz
    limits (-10.0 20.0)
           (-20.0 0.0)
  end
  begin
     id 25 
     name rhumerus
     direction -1 -4.48976e-011 2.0905e-027  
     length 5.73799   
     axis 180 30 90   XYZ
    dof rx ry rz
    limits (-90.0 60.0)
           (-90.0 90.0)
           (-90.0 90.0)
  end
  begin
     id 26 
     name rradius
     direction -1 -4.48968e-011 -9.39692e-029   
     length 3.57916   
     axis 180 30 90   XYZ
    dof rx
    limits (-10.0 170.0)
  end
  begin
     id 27 
     name rwrist
     direction -1 -4.48959e-011 4.7652e-027   
     length 1.78958   
     axis -3.27502e-015 -90 -90   XYZ
    dof ry
    limits (-180.0 0.0)
  end
  begin
     id 28
     name rhand
     direction -1 -4.49042e-011 9.5267e-027   
     length 0.615577   
     axis -6.08098e-015 -90 -90   XYZ
    dof rx rz
    limits (-90.0 90.0)
           (-45.0 45.0)
  end
  begin
     id 29
     name rfingers
     direction -1 -4.48935e-011 1.90629e-026   
     length 0.496294   
     axis -1.21619e-014 -90 -90   XYZ
    dof rx
    limits (0.0 90.0)
  end
  begin
     id 30
     name rthumb
     direction -0.707107 -6.34977e-011 0.707107   
     length 0.712582   
     axis -90 -45 9.86923e-015   XYZ
    dof rx rz
    limits (-45.0 45.0)
           (-45.0 45.0)
  end
:hierarchy
  begin
    root lhipjoint rhipjoint lowerback
    lhipjoint lfemur
    lfemur ltibia
    ltibia lfoot
    lfoot ltoes
    rhipjoint rfemur
    rfemur rtibia
    rtibia rfoot
    rfoot rtoes
    lowerback upperback
    upperback thorax
    thorax lowerneck lclavicle rclavicle
    lowerneck upperneck
    upperneck head
    lclavicle lhumerus
    lhumerus lradius
    lradius lwrist
    lwrist lhand lthumb
    lhand lfingers
    rclavicle rhumerus
    rhumerus rradius
    rradius rwrist
    rwrist rhand rthumb
    rhand rfingers
  end

#!OML:ASF H:\Terrain\Patient Classification 1\PaulMetrics\March17Take5\PaulMetrics.ASF
:FULLY-SPECIFIED
:DEGREES
3205
root 15.2755 17.3364 -14.4416 7.45552 -20.4316 -0.619888
lowerback 2.72376 4.03279 -5.93551
upperback -4.31035 4.97336 -1.43345
thorax -6.41414 2.6933 1.38306
lowerneck -2.20393 -4.7737 2.79119
upperneck 7.4102 -6.87531 4.48602
head 2.81335 -3.20481 0.74702
rclavicle 2.29845e-014 -3.57812e-014
rhumerus 40.1682 28.5078 -60.3016
rradius 116.592
rwrist -44.7993
rhand -20.2707 -27.7538
rfingers 7.12502
rthumb 6.07851 -57.6466
lclavicle 2.29845e-014 -3.57812e-014
lhumerus -45.4079 -14.5432 86.753
lradius 61.9903
lwrist 22.3146
lhand -19.0225 -21.309
lfingers 7.12502
lthumb 7.28345 8.54569
rfemur 1.16075 -13.3954 18.8457
rtibia 15.9564
rfoot -30.5886 -30.6738
rtoes 14.4949
lfemur -32.0131 -14.7191 -12.1802
ltibia 34.7288
lfoot -9.82563 -8.49199
ltoes -0.0979239
3206
root 15.2995 17.3102 -14.4592 7.31624 -21.2579 -0.703454
lowerback 2.96751 3.80837 -5.88226
upperback -4.49243 4.6708 -1.0916
thorax -6.75119 2.56025 1.71221
lowerneck -1.08702 -4.32659 1.73568
upperneck 6.99455 -6.19991 4.98073
head 2.51925 -2.91156 1.13292
rclavicle 1.00668e-014 -2.22639e-014
rhumerus 38.149 27.8824 -61.1601
rradius 116.384
rwrist -45.3337
rhand -19.6629 -27.9983
rfingers 7.12502
rthumb 6.66521 -57.8734
lclavicle 1.00668e-014 -2.22639e-014
lhumerus -45.9856 -13.6757 87.0464
lradius 61.8809
lwrist 22.2443
lhand -19.2685 -21.5239
lfingers 7.12502
lthumb 7.046 8.33883
rfemur 0.888683 -13.5544 18.8365
rtibia 16.0603
rfoot -28.9914 -31.5454
rtoes 10.5709
lfemur -31.7527 -14.3883 -12.1538
ltibia 34.7638
lfoot -9.46866 -8.12309
ltoes 3.40174
3207
root 15.3168 17.3152 -14.4718 7.19308 -22.172 -0.659697
lowerback 3.06027 3.83769 -5.7867
upperback -4.44341 4.70012 -1.26192
thorax -6.73066 2.56308 1.47545
lowerneck -1.50473 -4.23285 2.23203
upperneck 7.1797 -6.11071 4.84388
head 2.63244 -2.84726 0.997237
rclavicle 5.40547e-014 -2.06736e-014
rhumerus 36.0935 26.2078 -62.1581
rradius 116.137
rwrist -45.6316
rhand -19.1067 -28.196
rfingers 7.12502
rthumb 7.2022 -58.0535
lclavicle 5.40547e-014 -2.06736e-014
lhumerus -45.7932 -13.9506 86.7465
lradius 61.6795
lwrist 22.3349
lhand -19.1638 -21.7682
lfingers 7.12502
lthumb 7.14703 8.0911
rfemur 0.791798 -13.1385 18.6318
rtibia 16.1318
rfoot -29.2999 -31.1205
rtoes 12.6948
lfemur -31.4556 -14.5155 -12.1881
ltibia 34.7593
lfoot -9.8272 -7.36905
ltoes 2.47011
3208
root 15.3304 17.3248 -14.4803 7.13109 -23.1324 -0.46483
lowerback 2.92215 3.77623 -6.02453
upperback -4.30504 4.61252 -1.34936
thorax -6.51077 2.52213 1.54092
lowerneck -2.54503 -4.06458 2.69829
upperneck 7.77694 -5.96054 4.4869
head 2.99458 -2.73886 0.781462
rclavicle 4.93234e-015 -1.98785e-014
rhumerus 34.237 24.7742 -62.8878
rradius 115.743
rwrist -45.7911
rhand -18.8432 -28.2851
rfingers 7.12502
rthumb 7.45652 -58.1337
lclavicle 4.93234e-015 -1.98785e-014
lhumerus -45.3825 -13.7972 86.2893
lradius 61.3383
lwrist 22.1144
lhand -18.666 -22.206
lfingers 7.12502
lthumb 7.62755 7.63645
rfemur 0.601455 -12.6619 18.3385
rtibia 16.0501
rfoot -28.4624 -31.4449
rtoes 11.2147
lfemur -31.2853 -14.5189 -12.3652
ltibia 34.8107
lfoot -10.3373 -6.56545
ltoes 0.460643
3209
root 15.3476 17.319 -14.4897 7.07272 -24.0113 -0.46257
lowerback 2.8416 3.6207 -6.1232
upperback -4.17618 4.41494 -1.25036
thorax -6.32809 2.42619 1.72978
lowerneck -3.06813 -3.74824 2.88243
upperneck 8.07603 -5.56222 4.16941
head 3.17319 -2.53109 0.648473
rclavicle -4.53415e-014 2.54444e-014
rhumerus 32.4273 23.6919 -63.4739
rradius 115.241
rwrist -46.2739
rhand -18.7872 -28.2443
rfingers 7.12502
rthumb 7.51058 -58.091
lclavicle -4.53415e-014 2.54444e-014
lhumerus -44.8973 -13.5042 86.0057
lradius 60.7347
lwrist 22.1579
lhand -18.768 -22.6579
lfingers 7.12502
lthumb 7.5291 7.18813
rfemur 0.241981 -12.676 18.2664
rtibia 16.2723
rfoot -26.3456 -32.2582
rtoes 5.76364
lfemur -30.9734 -14.2469 -12.3771
ltibia 34.6718
lfoot -10.4227 -6.25052
ltoes 1.50292
3210
root 15.368 17.3152 -14.4982 6.8755 -24.916 -0.23495
lowerback 2.7828 3.58914 -6.2846
upperback -4.01694 4.36981 -1.32142
thorax -6.12926 2.40189 1.76063
lowerneck -3.50787 -3.58418 3.23787
upperneck 8.15241 -5.36031 3.81758
head 3.25808 -2.42507 0.471897
rclavicle 1.04573e-013 -1.59028e-014
rhumerus 30.4691 22.3555 -64.0615
rradius 114.805
rwrist -47.1112
rhand -18.8009 -28.5122
rfingers 7.12502
rthumb 7.49732 -58.3593
lclavicle 1.04573e-013 -1.59028e-014
lhumerus -44.4665 -13.6805 85.8105
lradius 60.3128
lwrist 22.5563
lhand -19.1986 -22.4675
lfingers 7.12502
lthumb 7.11345 7.39298
rfemur -0.0405458 -12.6888 17.8873
rtibia 16.5649
rfoot -25.3161 -32.5587
rtoes 1.48156
lfemur -30.5571 -14.0306 -12.6298
ltibia 34.4495
lfoot -10.4991 -6.03095
ltoes 3.0753
3211
root 15.3878 17.3256 -14.5093 6.59453 -25.8581 0.404402
lowerback 2.79611 3.62253 -6.76093
upperback -3.98761 4.3756 -1.50816
thorax -6.13308 2.41917 1.82768
lowerneck -3.34716 -3.493 2.93013
upperneck 7.72307 -5.22112 4.21028
head 3.10167 -2.36519 0.662819
rclavicle -2.56556e-014 1.51076e-014
rhumerus 28.2309 21.2342 -64.3867
rradius 114.364
rwrist -47.903
rhand -19.0837 -28.9816
rfingers 7.12502
rthumb 7.22434 -58.8383
lclavicle -2.56556e-014 1.51076e-014
lhumerus -44.4232 -13.7805 85.6668
lradius 60.1122
lwrist 22.7106
lhand -19.0465 -22.2339
lfingers 7.12502
lthumb 7.26022 7.6215
rfemur -0.296614 -12.2807 17.0657
rtibia 16.7406
rfoot -25.791 -32.1862
rtoes 0.826989
lfemur -30.2529 -13.7921 -13.3385
ltibia 34.2458
lfoot -10.6725 -5.33543
ltoes 2.10624
3212
root 15.4036 17.3403 -14.5185 6.52803 -26.7602 0.548318
lowerback 2.91553 3.73575 -6.70729
upperback -3.96149 4.51301 -1.64435
thorax -6.16989 2.4806 1.63622
lowerneck -2.97284 -3.34406 2.31168
upperneck 6.8696 -4.99795 5.20829
head 2.7915 -2.26763 1.10948
rclavicle 8.61483e-014 -2.14687e-014
rhumerus 25.8974 20.084 -64.5056
rradius 113.795
rwrist -48.7501
rhand -19.4802 -29.0635
rfingers 7.12502
rthumb 6.84159 -58.9329
lclavicle 8.61483e-014 -2.14687e-014
lhumerus -44.0985 -14.1162 85.5089
lradius 59.5686
lwrist 22.728
lhand -18.2158 -21.9999
lfingers 7.12502
lthumb 8.0621 7.82635
rfemur -0.544037 -11.7475 16.7611
rtibia 16.8841
rfoot -25.993 -31.5567
rtoes 1.99472
lfemur -29.9441 -13.529 -13.521
ltibia 34.0566
lfoot -10.7596 -4.69982
ltoes 2.35798
3213
root 15.4144 17.3388 -14.5282 6.48729 -27.5674 0.342875
lowerback 3.09212 3.77417 -6.47571
upperback -3.90086 4.56824 -1.60963
thorax -6.19328 2.49769 1.53063
lowerneck -3.20654 -3.20458 2.42931
upperneck 6.72646 -4.81069 5.09075
head 2.77583 -2.17565 1.05436
rclavicle -8.34896e-015 6.36111e-015
rhumerus 23.6435 19.0026 -64.9585
rradius 113.061
rwrist -49.3738
rhand -19.4973 -29.2692
rfingers 7.12502
rthumb 6.82514 -59.1392
lclavicle -8.34896e-015 6.36111e-015
lhumerus -43.7079 -14.3717 85.366
lradius 58.8044
lwrist 22.7882
lhand -17.5976 -21.7012
lfingers 7.12502
lthumb 8.65869 8.10118
rfemur -0.645151 -11.326 16.8899
rtibia 16.8957
rfoot -25.17 -31.5073
rtoes 1.59378
lfemur -29.5731 -13.2556 -13.3242
ltibia 33.9417
lfoot -10.9216 -4.57629
ltoes 3.61488
3214
root 15.426 17.3325 -14.5498 6.43011 -28.3447 0.277391
lowerback 3.25456 3.73168 -6.49915
upperback -3.91452 4.50244 -1.49241
thorax -6.30781 2.47166 1.65979
lowerneck -3.33957 -3.04968 2.74442
upperneck 6.86639 -4.57945 4.34397
head 2.81161 -2.07075 0.764983
rclavicle -4.34841e-015 1.66979e-014
rhumerus 21.3519 18.096 -65.5224
rradius 112.224
rwrist -49.8032
rhand -19.8031 -29.6325
rfingers 7.12502
rthumb 6.52987 -59.5118
lclavicle -4.34841e-015 1.66979e-014
lhumerus -43.5674 -14.4305 85.3276
lradius 58.0758
lwrist 22.8959
lhand -18.0336 -22.2659
lfingers 7.12502
lthumb 8.2379 7.55348
rfemur -0.677133 -10.6858 16.9693
rtibia 16.5935
rfoot -24.4977 -32.0061
rtoes -0.0818809
lfemur -29.4132 -12.8967 -13.2534
ltibia 33.9481
lfoot -11.0852 -4.32749
ltoes 2.62346
3215
root 15.4388 17.3296 -14.5693 6.41128 -29.2003 0.371755
lowerback 3.23486 3.74373 -6.60044
upperback -3.8993 4.51454 -1.48312
thorax -6.29126 2.48151 1.72583
lowerneck -3.29303 -2.87055 2.8077
upperneck 6.7124 -4.31367 4.08593
head 2.73889 -1.95005 0.681661
rclavicle 1.05729e-014 5.56597e-015
rhumerus 18.924 17.1255 -65.8807
rradius 111.326
rwrist -50.3237
rhand -20.4764 -29.5688
rfingers 7.12502
rthumb 5.87984 -59.4672
lclavicle 1.05729e-014 5.56597e-015
lhumerus -43.424 -14.5296 85.1981
lradius 57.4417
lwrist 22.7149
lhand -18.4584 -23.041
lfingers 7.12502
lthumb 7.82792 6.7941
rfemur -0.672646 -9.9436 16.8346
rtibia 16.1671
rfoot -24.4574 -32.1128
rtoes -1.2462
lfemur -29.3437 -12.5965 -13.3357
ltibia 33.9969
lfoot -11.3061 -3.79882
ltoes 0.674346
3216
root 15.4458 17.3316 -14.5812 6.35733 -29.8474 0.655637
lowerback 3.07303 3.65745 -6.90246
upperback -3.84043 4.39296 -1.5407
thorax -6.14703 2.42863 1.85802
lowerneck -3.60359 -2.66875 2.81507
upperneck 6.74064 -4.06327 4.13266
head 2.80549 -1.81916 0.699459
rclavicle 6.23687e-014 -1.19271e-014
rhumerus 16.4065 16.1291 -66.3471
rradius 110.44
rwrist -50.9224
rhand -20.4744 -29.9209
rfingers 7.12502
rthumb 5.8818 -59.8193
lclavicle 6.23687e-014 -1.19271e-014
lhumerus -43.1815 -14.492 84.9166
lradius 56.7842
lwrist 22.4943
lhand -18.6178 -23.646
lfingers 7.12502
lthumb 7.67402 6.19474
rfemur -0.696643 -9.40556 16.5003
rtibia 15.9422
rfoot -24.7693 -31.6346
rtoes -0.494257
lfemur -29.2971 -12.4119 -13.6301
ltibia 33.9599
lfoot -11.5438 -3.3386
ltoes -2.36328
3217
root 15.4494 17.3381 -14.5927 6.24864 -30.3106 1.01902
lowerback 2.90019 3.49774 -7.26832
upperback -3.71951 4.17223 -1.65182
thorax -5.92143 2.32402 1.98241
lowerneck -4.07777 -2.47592 3.03197
upperneck 6.81914 -3.84231 4.08357
head 2.91333 -1.69728 0.647943
rclavicle -4.14466e-014 -5.56597e-015
rhumerus 14.0308 15.0756 -66.9813
rradius 109.484
rwrist -51.4319
rhand -20.2033 -30.5263
rfingers 7.12502
rthumb 6.14359 -60.4172
lclavicle -4.14466e-014 -5.56597e-015
lhumerus -42.7451 -14.4537 84.5338
lradius 56.0612
lwrist 22.5864
lhand -18.5064 -23.568
lfingers 7.12502
lthumb 7.78162 6.26884
rfemur -0.884981 -8.87861 16.1461
rtibia 15.9251
rfoot -24.8072 -31.5131
rtoes 0.498543
lfemur -29.2486 -12.3135 -13.966
ltibia 33.8382
lfoot -11.6403 -2.95465
ltoes -4.23258
3218
root 15.4583 17.3377 -14.604 6.03325 -30.9083 1.34089
lowerback 2.93616 3.44645 -7.55496
upperback -3.65529 4.0843 -1.69096
thorax -5.88643 2.28861 2.10812
lowerneck -4.28411 -2.37662 3.12979
upperneck 6.82207 -3.70718 3.8359
head 2.94392 -1.63337 0.553625
rclavicle -2.99792e-014 6.36111e-015
rhumerus 11.6552 14.0974 -67.3479
rradius 108.204
rwrist -51.7351
rhand -20.2106 -30.4934
rfingers 7.12502
rthumb 6.13646 -60.3845
lclavicle -2.99792e-014 6.36111e-015
lhumerus -42.5504 -14.3334 84.2941
lradius 55.4487
lwrist 22.6235
lhand -17.8087 -22.9121
lfingers 7.12502
lthumb 8.45496 6.89862
rfemur -1.06302 -8.25835 15.8117
rtibia 15.9993
rfoot -24.5274 -31.7182
rtoes 0.567523
lfemur -29.0012 -12.2708 -14.2063
ltibia 33.6634
lfoot -11.6168 -2.69861
ltoes -1.38825
